<svg xmlns="http://www.w3.org/2000/svg" xmlns:xlink="http://www.w3.org/1999/xlink" width="1920" height="1080.591" viewBox="0 0 1920 1080.591">
  <defs>
    <linearGradient id="linear-gradient" x1="0.199" x2="0.974" y2="0.981" gradientUnits="objectBoundingBox">
      <stop offset="0" stop-color="#91f4ff"/>
      <stop offset="1" stop-color="#6964ff"/>
    </linearGradient>
    <linearGradient id="linear-gradient-2" x1="0.188" x2="0.318" y2="1.06" gradientUnits="objectBoundingBox">
      <stop offset="0" stop-color="#91f4ff"/>
      <stop offset="0.469" stop-color="#81bcff"/>
      <stop offset="1" stop-color="#6964ff"/>
    </linearGradient>
  </defs>
  <g id="메인_배경" transform="translate(1 0.212)">
    <path id="패스_320" data-name="패스 320" d="M-427.329,1024.246h1044V403.888s-87.984,52.194-149.125-35.79,71.58-232.634-83.51-292.284S190.174,138.446,73.857,111.6-93.163-55.417-93.163-55.417H-397.377s164.037,37.281,184.915,202.81-156.581,289.3-101.4,459.3S-3.688,755.822,44.032,833.367C71.566,878.11,42.671,961.241-98.894,1001.25-202.176,1030.44-427.329,1024.246-427.329,1024.246Z" transform="translate(1302.329 55.204)" fill="url(#linear-gradient)"/>
    <path id="패스_316" data-name="패스 316" d="M-23,541.2v508.879H882.952s-155.607-14.046-300.736-46.183C479.348,981.119,381.727,949.23,348.72,906.8c-79.536-102.232,101.519-118.742,0-189.2S167.472,731.54,76.94,697.78-23,541.2-23,541.2Z" transform="translate(22 30.298)" fill="url(#linear-gradient-2)"/>
  </g>
</svg>
