<svg xmlns="http://www.w3.org/2000/svg" xmlns:xlink="http://www.w3.org/1999/xlink" width="147.548" height="64" viewBox="0 0 147.548 64">
  <defs>
    <linearGradient id="linear-gradient" x1="0.765" y1="0.099" x2="0.17" y2="0.88" gradientUnits="objectBoundingBox">
      <stop offset="0" stop-color="#8bd0ff"/>
      <stop offset="1" stop-color="#1a3f94"/>
    </linearGradient>
  </defs>
  <g id="DMS로고" transform="translate(606.5 -3889)">
    <path id="패스_145" data-name="패스 145" d="M-588.97,3906.039a5.493,5.493,0,0,0-1.261,4.064v38.909s-.219,3.943,1.639,5.895a7.588,7.588,0,0,0,5.806,2.031h15.858a24.9,24.9,0,0,0,3.412-.262,8.144,8.144,0,0,0,3.233-.993c5.386-2.455,16.83-9.64,17.231-25.871.531-21.5-20.435-25.011-20.435-25.011h-21.12S-587.735,3904.671-588.97,3906.039Z" transform="translate(-4.337 -4.213)" fill="#1dc1ea"/>
    <path id="패스_146" data-name="패스 146" d="M-530.109,3949.138h29.514s.844-.04.882-.81-.882-.806-.882-.806-15.3.121-15.537,0-8.539-2.722-8.409-13,8.363-10.751,8.363-10.751h24.067s2.788.335,2.695,5.539-2.695,5.212-2.695,5.212h-20.66s-1.127.13-1.066.944,1.282.748,1.282.748h15.1s8.038,1.087,8.038,11.309a12.51,12.51,0,0,1-9.013,12.451h-37.355v-3.491a14.436,14.436,0,0,0,3.245-2.936A13.4,13.4,0,0,0-530.109,3949.138Z" transform="translate(-18.862 -9.274)" fill="#fcd459"/>
    <path id="패스_165" data-name="패스 165" d="M-531.095,3955.68s6.22,3.462,10.39,3.534,4.193-3.567,4.193-3.567l14.917.033s.844-.04.882-.81-.882-.806-.882-.806H-516.1a8.675,8.675,0,0,1,8.411-5.562c4.188,0,11.042-.733,14.81.575,1.858.639,2.462,1.246,2.462,4.987,0,10.221-8.277,12.451-8.277,12.451h-38.088v-3.491a12.871,12.871,0,0,0,3.752-3.622A10.471,10.471,0,0,0-531.095,3955.68Z" transform="translate(-17.862 -15.816)" fill="#faac13"/>
    <path id="패스_147" data-name="패스 147" d="M-479.378,3960.243a24.189,24.189,0,0,0,9.407,1.537c5.883-.055,7.427-3.972,7.85-5.161a10.442,10.442,0,0,0,.481-2.64v-18.556s.152-.59.656-.59.645.59.645.59-.071,16.214.53,17.495,2.359,6.362,11.222,6.433,10.507-5.5,10.793-6.433.407-17.495.407-17.495.072-.724.679-.724.622.724.622.724v21.2s.81,3.622,5.978,3.4,5.036-3.4,5.036-3.4v-25.5s-.786-8.077-11.015-8.077-12.07,7.219-12.07,7.219v15.678s-.01,1.1-.856,1.132-.837-1.132-.837-1.132v-15.678s-1.813-6.719-11.791-6.719-11.012,6.719-11.012,6.719v23.907a6.022,6.022,0,0,1-2.072,3.172A33.32,33.32,0,0,1-479.378,3960.243Z" transform="translate(-33.907 -9.081)" fill="#f2365d"/>
    <path id="패스_164" data-name="패스 164" d="M-590.254,3947.771h6.286s4,5.088,9.4,6.262c10.417,2.266,27.441,1.408,27.441,1.408a33.877,33.877,0,0,1-5.884,7.061,23.825,23.825,0,0,1-6.61,4.254c-2.888,1.447-3.314,1.4-4.941,1.533a129.707,129.707,0,0,1-19.908,0c-1.584-.184-3.256-.289-4.7-2.685s-1.081-6.9-1.081-6.9Z" transform="translate(-4.322 -15.676)" fill="#016fc8"/>
    <g id="그룹_14" data-name="그룹 14" transform="translate(-592.613 3906.599)">
      <circle id="타원_16" data-name="타원 16" cx="17.965" cy="17.965" r="17.965" transform="translate(2.612)" fill="url(#linear-gradient)"/>
      <path id="패스_148" data-name="패스 148" d="M-1039.562,3895.853a15.59,15.59,0,0,1,3.1-5.05,20.8,20.8,0,0,1,4.553-3.23,5.681,5.681,0,0,1,.849,1.3,11.517,11.517,0,0,1,.626,1.815,17.324,17.324,0,0,0-2.459,3.246,19.047,19.047,0,0,0-1.647,3.652Z" transform="translate(1046.137 -3883.99)" fill="#fff"/>
      <path id="패스_149" data-name="패스 149" d="M-1022.807,3895.943a17.93,17.93,0,0,0-2.048,2.935,29.89,29.89,0,0,0-1.689,3.823,31.932,31.932,0,0,1,3.547,1.245c1.916.8,4.036,1.705,4.036,1.705l1.813-4.957s-1.183-1.093-2.6-2.281S-1022.807,3895.943-1022.807,3895.943Z" transform="translate(1039.278 -3888.399)" fill="#fff"/>
      <path id="패스_150" data-name="패스 150" d="M-1005.461,3907.163l-1.729,5.161s1.592.364,3.321.961,3.6,1.427,3.6,1.427a32.784,32.784,0,0,0,1.028-3.756,21.5,21.5,0,0,0,.372-3.408Z" transform="translate(1029.082 -3894.311)" fill="#fff"/>
      <path id="패스_151" data-name="패스 151" d="M-988.287,3906.592a29.4,29.4,0,0,1-.338,4.223,21.8,21.8,0,0,1-1.014,3.737l5.532,2.26a21.1,21.1,0,0,0,.612-5.7,25.308,25.308,0,0,0-.971-5.49A37.47,37.47,0,0,0-988.287,3906.592Z" transform="translate(1019.835 -3893.494)" fill="#fff"/>
      <path id="패스_152" data-name="패스 152" d="M-1020.267,3885.642s1.129,2.648,1.179,2.573,3.673-3.148,3.673-3.148-1.673.031-2.886.175A10.56,10.56,0,0,0-1020.267,3885.642Z" transform="translate(1035.971 -3882.669)" fill="#fff"/>
      <path id="패스_153" data-name="패스 153" d="M-1016.214,3889.5s5.2,4.239,5.2,4.19,3.086-7.65,3.021-7.715a15.9,15.9,0,0,0-2.1-.357,12.243,12.243,0,0,0-1.966,0Z" transform="translate(1033.836 -3882.94)" fill="#fff"/>
      <path id="패스_154" data-name="패스 154" d="M-999.354,3887.551s-3.011,7.8-2.974,7.759a17.141,17.141,0,0,0,2.849.287c1.521.019,3.249,0,3.249,0a26.6,26.6,0,0,0-.409-3.761,9.6,9.6,0,0,0-.654-2.6,2.214,2.214,0,0,0-.983-1.176A1.734,1.734,0,0,0-999.354,3887.551Z" transform="translate(1026.52 -3883.978)" fill="#fff"/>
      <path id="패스_155" data-name="패스 155" d="M-988.1,3897.944s1.093-.2,1.924-.449a9.083,9.083,0,0,0,1.4-.538,18.264,18.264,0,0,0-1.9-2.6,16.978,16.978,0,0,0-2.452-2.038,14.358,14.358,0,0,1,.78,2.907C-988.186,3896.557-988.1,3897.944-988.1,3897.944Z" transform="translate(1019.566 -3886.491)" fill="#fff"/>
      <path id="패스_156" data-name="패스 156" d="M-1042.447,3907.471a17.789,17.789,0,0,0-.893,5.593,18.509,18.509,0,0,0,1.234,5.6,6.858,6.858,0,0,1,1.51-.6,11.276,11.276,0,0,1,1.867-.277,21.688,21.688,0,0,1,.329-3.98,35.924,35.924,0,0,1,1.191-4.5Z" transform="translate(1048.13 -3894.473)" fill="#fff"/>
      <path id="패스_157" data-name="패스 157" d="M-1036.174,3920.246a20.7,20.7,0,0,0-2.611,0s.229-2.239.607-4.187a36.322,36.322,0,0,1,.9-3.609l7.779,3.153-1.932,4.836h-3.468l-1.473,2.58a9.071,9.071,0,0,1,2.171,3.95,7.006,7.006,0,0,1-.809,4.218,16.67,16.67,0,0,1-3.273-.317,6.381,6.381,0,0,1-2.429-1.223c-.025-.092.341-.84.275-1.119a.443.443,0,0,0-.643-.27c-.292.116-.478.874-.856.671a9.474,9.474,0,0,1-3.758-3.464,6.341,6.341,0,0,1,3.146-2.914,11.872,11.872,0,0,1,4.958-.222Z" transform="translate(1049.366 -3897.095)" fill="#fff"/>
      <path id="패스_158" data-name="패스 158" d="M-1023.031,3931.814l-.631.93a7.873,7.873,0,0,1,.989,1.149,12.938,12.938,0,0,1,.962,1.624,10.411,10.411,0,0,0,1.035-1.794,6.979,6.979,0,0,0,.464-1.774A19.14,19.14,0,0,0-1023.031,3931.814Z" transform="translate(1037.76 -3907.298)" fill="#fff"/>
      <path id="패스_159" data-name="패스 159" d="M-1010.671,3920.45l-2.175,5.11a11.31,11.31,0,0,1,2.639,1.225,18.979,18.979,0,0,1,2.639,2.154,16.184,16.184,0,0,0,1.647-2.471,34.028,34.028,0,0,0,1.542-3.442s-1.642-.913-3.294-1.625A14.978,14.978,0,0,0-1010.671,3920.45Z" transform="translate(1032.062 -3901.311)" fill="#fff"/>
      <path id="패스_160" data-name="패스 160" d="M-1016.591,3933.258l-.926,2.826-1.2,2.875-.211,2.29a11.814,11.814,0,0,0,3.314-1.3,23.85,23.85,0,0,0,3.882-3.054,17.812,17.812,0,0,0-2.144-2.112A11.132,11.132,0,0,0-1016.591,3933.258Z" transform="translate(1035.267 -3908.058)" fill="#fff"/>
      <path id="패스_161" data-name="패스 161" d="M-1008.574,3943.572a17.512,17.512,0,0,1-2.576,2.112,21.068,21.068,0,0,1-3.125,1.626,27.062,27.062,0,0,0,4.519,0,9.319,9.319,0,0,0,2.956-.781,3.7,3.7,0,0,0-.507-1.394A10.056,10.056,0,0,0-1008.574,3943.572Z" transform="translate(1032.814 -3913.492)" fill="#fff"/>
      <path id="패스_162" data-name="패스 162" d="M-999.951,3933.724s2.217,3.969,2.217,3.863a18.267,18.267,0,0,0,4.455-3.273,22.662,22.662,0,0,0,3.358-4.856l-3.78-1.415-2.534-.76a22.811,22.811,0,0,1-1.626,3.822A11.246,11.246,0,0,1-999.951,3933.724Z" transform="translate(1025.268 -3904.911)" fill="#fff"/>
      <path id="패스_163" data-name="패스 163" d="M-1050.374,3941.553a19.3,19.3,0,0,0,4.27,4c2.534,1.677,6.586,1.9,6.586,1.9s-3.92,10.977-10.855,6.574S-1050.374,3941.553-1050.374,3941.553Z" transform="translate(1053.457 -3912.429)" fill="#fff"/>
    </g>
    <g id="타원_17" data-name="타원 17" transform="matrix(0.891, 0.454, -0.454, 0.891, -582.656, 3934.29)" fill="#fff" stroke="#21489a" stroke-width="1">
      <ellipse cx="0.733" cy="1.467" rx="0.733" ry="1.467" stroke="none"/>
      <ellipse cx="0.733" cy="1.467" rx="0.233" ry="0.967" fill="none"/>
    </g>
    <rect id="사각형_4" data-name="사각형 4" width="3.666" height="10.266" rx="1.833" transform="translate(-590.735 3889)" fill="#3c84cd"/>
    <rect id="사각형_5" data-name="사각형 5" width="3.666" height="10.266" rx="1.833" transform="matrix(0.719, -0.695, 0.695, 0.719, -602.585, 3894.647)" fill="#ffb130"/>
    <rect id="사각형_6" data-name="사각형 6" width="3.666" height="10.266" rx="1.833" transform="translate(-606.5 3907.698) rotate(-90)" fill="#d71823"/>
    <path id="패스_166" data-name="패스 166" d="M-472.452,3950l10.454,7.418.406.375a15.562,15.562,0,0,1-.1,4.82,8.074,8.074,0,0,1-2.755,4.631,9.8,9.8,0,0,1-5.68,1.661,30.678,30.678,0,0,1-8.922-1.312c-1-.387,4.817-1.378,6.43-5.767.482-1.312.131-2.979.169-4.829C-472.374,3953.4-472.452,3950-472.452,3950Z" transform="translate(-34.024 -16.265)" fill="#d80e25"/>
    <path id="패스_167" data-name="패스 167" d="M-452.787,3956.9c.276-.221,4.259,1.978,8.351.539s14.1-13.21,14.1-13.21l-.268,14.037a7.959,7.959,0,0,1-3.3,4.582,15.97,15.97,0,0,1-8.092,2.117c-6.052-.118-9.2-3.379-10.45-5.921A4.02,4.02,0,0,1-452.787,3956.9Z" transform="translate(-41.023 -14.63)" fill="#d80e25"/>
    <path id="패스_168" data-name="패스 168" d="M-420.289,3943.383a4.654,4.654,0,0,1,4.275-1.617c2.613.5,6.764,3.359,6.764,3.359l-.054,16.451s.072,2.992-4.635,3.269c-2.945.176-4.734-.669-5.743-1.956a3.919,3.919,0,0,1-.554-1.206C-420.235,3961.96-420.289,3943.383-420.289,3943.383Z" transform="translate(-49.702 -14.053)" fill="#d80e25"/>
  </g>
</svg>
