<svg xmlns="http://www.w3.org/2000/svg" width="35.502" height="34.752" viewBox="0 0 35.502 34.752">
  <g id="패스_817" data-name="패스 817" transform="translate(19.976 -2.072) rotate(49)" fill="#ffe600">
    <path d="M 13.68307876586914 28.21494483947754 C 12.9508752822876 27.85244369506836 10.70880603790283 26.67819786071777 8.495999336242676 24.8670482635498 C 6.935929298400879 23.59014701843262 5.695779323577881 22.25137710571289 4.810009479522705 20.88793754577637 C 3.721889495849609 19.21304702758789 3.170169353485107 17.49592781066895 3.170169353485107 15.78428745269775 C 3.170169353485107 12.13570785522461 3.8253493309021 8.859658241271973 5.064869403839111 6.310287952423096 C 6.476729393005371 3.406487941741943 8.576148986816406 1.545967936515808 11.3048095703125 0.7804178595542908 C 11.31160926818848 0.7784678936004639 11.31416893005371 0.7779778838157654 11.31840896606445 0.7779778838157654 C 11.40313911437988 0.7779778838157654 11.60372924804688 0.9012678861618042 11.76489925384521 1.000327825546265 C 12.12924957275391 1.224287867546082 12.628249168396 1.5309978723526 13.30552959442139 1.5309978723526 C 13.64675903320313 1.5309978723526 13.95575904846191 1.310397863388062 14.31354904174805 1.054967880249023 C 14.59081935882568 0.8570278882980347 14.97054958343506 0.5859378576278687 15.20003890991211 0.5859378576278687 C 15.20791912078857 0.5859378576278687 15.21522903442383 0.5862878561019897 15.22237968444824 0.5869978666305542 C 18.15880012512207 0.8603779077529907 20.22914886474609 2.272217988967896 21.55493927001953 4.903497695922852 C 22.70611000061035 7.188227653503418 23.26570892333984 10.30952835083008 23.26570892333984 14.44575786590576 C 23.26570892333984 16.17096710205078 22.76026916503906 17.96919822692871 21.7634391784668 19.79047775268555 C 20.95435905456543 21.26873779296875 19.82259941101074 22.7642879486084 18.39959907531738 24.2355785369873 C 16.38944625854492 26.31395721435547 14.35358142852783 27.76001358032227 13.68307876586914 28.21494483947754 Z" stroke="none"/>
    <path d="M 15.21016693115234 1.088075637817383 C 15.07303428649902 1.127145767211914 14.7699613571167 1.343498229980469 14.604079246521 1.461917877197266 C 14.2121696472168 1.741687774658203 13.80690956115723 2.030988693237305 13.30552959442139 2.030988693237305 C 12.48687934875488 2.030988693237305 11.89484977722168 1.667097091674805 11.50307941436768 1.426298141479492 C 11.43862247467041 1.386682510375977 11.35857963562012 1.337484359741211 11.29681777954102 1.303213119506836 C 8.78123664855957 2.053146362304688 6.836212158203125 3.810598373413086 5.51453971862793 6.528928756713867 C 4.307939529418945 9.010568618774414 3.670169830322266 12.21101760864258 3.670169830322266 15.78428745269775 C 3.670169830322266 17.39452743530273 4.192729949951172 19.01691818237305 5.223348617553711 20.60638809204102 C 6.078218460083008 21.92482757568359 7.280309677124023 23.22359848022461 8.796209335327148 24.46661758422852 C 10.75660133361816 26.07411575317383 12.74501037597656 27.17339134216309 13.6435546875 27.63497352600098 C 14.46596527099609 27.05999565124512 16.27231216430664 25.71868324279785 18.05472946166992 23.87292861938477 C 19.44293975830078 22.43538856506348 20.54494857788086 20.97783851623535 21.33012962341309 19.54075813293457 C 22.2827091217041 17.79727745056152 22.76570892333984 16.08306884765625 22.76570892333984 14.44575786590576 C 22.76570892333984 10.44583702087402 22.2081184387207 7.311058044433594 21.1084098815918 5.128488540649414 C 19.87113952636719 2.672876358032227 17.94142532348633 1.350961685180664 15.21016693115234 1.088075637817383 M 15.20003890991211 0.0859375 C 15.22414779663086 0.08593559265136719 15.24808597564697 0.0870819091796875 15.27193927764893 0.08945846557617188 C 21.89229965209961 0.7057971954345703 23.76570892333984 6.925178527832031 23.76570892333984 14.44575786590576 C 23.76570892333984 22.39562797546387 13.72244930267334 28.78903770446777 13.72244930267334 28.78903770446777 C 13.72244930267334 28.78903770446777 2.670169830322266 23.73415756225586 2.670169830322266 15.78428745269775 C 2.670169830322266 8.860008239746094 5.023738861083984 2.023317337036133 11.16974925994873 0.2990074157714844 C 11.21956729888916 0.2845783233642578 11.26904106140137 0.2779750823974609 11.31841087341309 0.2779750823974609 C 11.84598922729492 0.2779750823974609 12.36769104003906 1.030988693237305 13.30552959442139 1.030988693237305 C 13.72035598754883 1.030988693237305 14.50858592987061 0.0859832763671875 15.20003890991211 0.0859375 Z" stroke="none" fill="#fb0"/>
  </g>
</svg>
