<svg xmlns="http://www.w3.org/2000/svg" width="116.11" height="49" viewBox="0 0 116.11 49">
  <g id="그룹_141" data-name="그룹 141" transform="translate(-176 -49.5)">
    <text id="PEAR" transform="translate(178 88.5)" stroke="#000" stroke-width="2" font-size="37" font-family="Tahoma-Bold, Tahoma" font-weight="700" letter-spacing="0.02em"><tspan x="0" y="0">PEAR</tspan></text>
    <g id="패스_682" data-name="패스 682" transform="translate(285.157 47.641) rotate(49)" fill="#ffe600">
      <path d="M 6.836368083953857 10.42845821380615 C 5.976125717163086 9.976323127746582 3.170168399810791 8.327219009399414 3.170168399810791 6.059081554412842 C 3.170168399810791 4.717471599578857 3.408678531646729 3.517781734466553 3.85990834236145 2.5897216796875 C 4.338807106018066 1.604760527610779 5.037394523620605 0.962357223033905 5.9374098777771 0.6787487268447876 C 5.948102951049805 0.6852365136146545 5.958831310272217 0.6918319463729858 5.968458652496338 0.6977516412734985 C 6.128988265991211 0.7964216470718384 6.371578216552734 0.9455316662788391 6.71686840057373 0.9455316662788391 C 6.945918560028076 0.9455316662788391 7.123608589172363 0.8186816573143005 7.280388355255127 0.7067616581916809 C 7.331537246704102 0.670240581035614 7.412590980529785 0.6123726963996887 7.459500789642334 0.5891851186752319 C 8.440583229064941 0.6925434470176697 9.133196830749512 1.173397898674011 9.579098701477051 2.058371782302856 C 9.989048004150391 2.871991634368896 10.19690799713135 4.046671867370605 10.19690799713135 5.549771785736084 C 10.19690799713135 7.861370086669922 7.628227710723877 9.865655899047852 6.836368083953857 10.42845821380615 Z" stroke="none"/>
      <path d="M 7.577629566192627 1.108903884887695 C 7.575331211090088 1.110544204711914 7.573086738586426 1.112146377563477 7.570908546447754 1.113701820373535 C 7.38580846786499 1.245841979980469 7.106088638305664 1.445531845092773 6.71686840057373 1.445531845092773 C 6.359678268432617 1.445531845092773 6.081158638000488 1.332754135131836 5.885911464691162 1.228283882141113 C 5.217633247375488 1.499307632446289 4.688246726989746 2.029538154602051 4.309578895568848 2.808351516723633 C 3.891268730163574 3.668691635131836 3.670168876647949 4.792771816253662 3.670168876647949 6.059081554412842 C 3.670168876647949 7.733289241790771 5.61249828338623 9.176759719848633 6.793319702148438 9.840853691101074 C 7.124129772186279 9.590888977050781 7.595154762268066 9.205193519592285 8.067928314208984 8.717121124267578 C 8.811058044433594 7.949931621551514 9.696908950805664 6.777671813964844 9.696908950805664 5.549771785736084 C 9.696908950805664 4.125531673431396 9.507038116455078 3.026551246643066 9.132577896118164 2.283351898193359 C 8.785468101501465 1.594444274902344 8.300893783569336 1.225956916809082 7.577629566192627 1.108903884887695 M 7.437713623046875 0.08594131469726563 C 7.446887016296387 0.08594036102294922 7.456002235412598 0.08637714385986328 7.465078353881836 0.08728122711181641 C 9.984088897705078 0.3217916488647461 10.69690895080566 2.688231468200684 10.69690895080566 5.549771785736084 C 10.69690895080566 8.574661254882813 6.875498294830322 11.00731182098389 6.875498294830322 11.00731182098389 C 6.875498294830322 11.00731182098389 2.670168876647949 9.083961486816406 2.670168876647949 6.059081554412842 C 2.670168876647949 3.424431800842285 3.565688133239746 0.8231019973754883 5.904218673706055 0.1670112609863281 C 5.923173427581787 0.1615209579467773 5.941997051239014 0.1590080261230469 5.960781574249268 0.1590080261230469 C 6.161517143249512 0.1590080261230469 6.360021591186523 0.4455318450927734 6.71686840057373 0.4455318450927734 C 6.87470531463623 0.4455318450927734 7.17461633682251 0.0859527587890625 7.437713623046875 0.08594131469726563 Z" stroke="none" fill="#fb0"/>
    </g>
  </g>
</svg>
