<svg xmlns="http://www.w3.org/2000/svg" width="31" height="31" viewBox="0 0 31 31">
  <g id="선생님_프로필" data-name="선생님 프로필" transform="translate(2262 -5324)">
    <circle id="타원_177" data-name="타원 177" cx="15.5" cy="15.5" r="15.5" transform="translate(-2262 5324)" fill="#27d5b1"/>
    <circle id="타원_178" data-name="타원 178" cx="5.5" cy="5.5" r="5.5" transform="translate(-2252 5329)" fill="#fff"/>
    <path id="패스_818" data-name="패스 818" d="M1452.787-299.923c1.321-1.736,2.177-2.42,3.138-2.18s1.518,1.8,5.041,1.8,3.688-1.292,4.582-1.677,2.079.352,3.472,2.058a24.183,24.183,0,0,1,2.682,4.765s-3,5.285-10.536,5.529a12.164,12.164,0,0,1-10.805-5.529A22.336,22.336,0,0,1,1452.787-299.923Z" transform="translate(-3707.352 5641.834)" fill="#fff"/>
  </g>
</svg>
